# xmcd
#
# Track frame offsets: 
#        183
#        13490
#        28013
#        43335
#        55958
#        68495
#        81123
#        93893
#        106613
#        119720
#        134148
#        146550
#        158113
#        171173
#        184700
#        197333
#        210750
#        223763
#        236423
#        248723
#        263595
#
# Disc length: 3668 seconds
#
# Revision: 1
# Processed by: cddbd v1.5.2PL0 Copyright (c) Steve Scherf et al.
# Submitted via: ExactAudioCopy v0.99pb4
#
DISCID=260e5215
DTITLE=Big Joe Williams - Complete Recorded Works 1945-49
DYEAR=1991
DGENRE=Blues
TTITLE0=Drop Down Blues
TTITLE1=Somebody's Been Worryin'
TTITLE2=Wanita
TTITLE3=Vitamin A
TTITLE4=His Spirit Lives On
TTITLE5=Baby Please Don't Go
TTITLE6=Stack Of Dollars
TTITLE7=Mellow Apples
TTITLE8=Wild Cow Moan
TTITLE9=P Vine Blues
TTITLE10=Bad And Weakhearted Blues
TTITLE11=King Biscuit Stomp
TTITLE12=I'm A Highway Man
TTITLE13=Banta Rooster Blues
TTITLE14=Mean Step Father Blues
TTITLE15=House Lady Blues
TTITLE16=Don't You Leave Me Here
TTITLE17=Jivin' Woman
TTITLE18=She's A Married Woman
TTITLE19=Walking Blues (with Chasey Collins)
TTITLE20=Atlanta Town (with Chasey Collins)
EXTD=
EXTT0=
EXTT1=
EXTT2=
EXTT3=
EXTT4=
EXTT5=
EXTT6=
EXTT7=
EXTT8=
EXTT9=
EXTT10=
EXTT11=
EXTT12=
EXTT13=
EXTT14=
EXTT15=
EXTT16=
EXTT17=
EXTT18=
EXTT19=
EXTT20=
PLAYORDER=
